<!-- Generator: Adobe Illustrator 19.1.0, SVG Export Plug-In . SVG Version: 6.00 Build 0)  -->
<svg width="445px" version="1.1" id="Layer_1" xmlns="http://www.w3.org/2000/svg" xmlns:xlink="http://www.w3.org/1999/xlink" x="0px" y="0px"
	 viewBox="0 0 1794.4 175.6" enable-background="new 0 0 1794.4 175.6" xml:space="preserve">
<g>
	<path fill="#00254A" d="M366.7,0h-3.5H0v175.6h366.7v0h1427.7V0H366.7z M115.3,75.3h-1.5c-0.7-0.6-1.6-1.4-2.7-2.3
		s-2.3-1.8-3.7-2.6c-1.4-0.8-2.9-1.6-4.5-2.2c-1.7-0.6-3.4-0.9-5.2-0.9c-2.1,0-4.1,0.3-5.9,1c-1.8,0.7-3.5,1.8-5.1,3.5
		C85.2,73.4,84,75.4,83,78c-0.9,2.6-1.4,5.6-1.4,9.1c0,3.7,0.5,6.8,1.5,9.3c1,2.5,2.3,4.5,3.8,6.1c1.5,1.5,3.2,2.6,5.1,3.2
		s3.8,1,5.7,1c2,0,3.8-0.3,5.6-1c1.8-0.6,3.3-1.4,4.5-2.2c1.3-0.8,2.5-1.7,3.5-2.5c1-0.8,1.9-1.6,2.6-2.3h1.3v13.9
		c-1.1,0.5-2.3,1.1-3.8,1.7c-1.4,0.6-2.9,1.2-4.4,1.6c-1.9,0.6-3.6,1-5.2,1.3s-3.8,0.4-6.7,0.4c-8.9,0-15.9-2.7-21.1-8
		S66.3,96.8,66.3,87c0-9.4,2.6-16.8,7.8-22.4c5.2-5.6,12.3-8.4,21.1-8.4c2.4,0,4.5,0.1,6.3,0.4c1.9,0.3,3.7,0.6,5.4,1.1
		c1.3,0.4,2.8,0.9,4.4,1.6c1.6,0.7,2.9,1.3,3.8,1.8V75.3z M175,116.5h-46.9v-11.1l27.2-36.7h-25.8V57.4h43.8v11.3l-27.1,36.5H175
		V116.5z M240,101.8c-2.4,4.4-5.4,7.7-9.1,10c-3.1,2-6.4,3.3-10,3.8c-3.6,0.6-7.5,0.9-11.5,0.9h-18.5V57.4h18.3
		c4.2,0,8,0.3,11.7,0.8c3.6,0.5,7,1.8,10.2,3.8c3.9,2.5,7,5.8,9.2,10.1c2.2,4.2,3.4,9.2,3.4,14.9C243.6,92.5,242.4,97.5,240,101.8z
		 M297.5,112.2c-4.6,3.6-10.9,5.4-18.7,5.4c-4.5,0-8.5-0.4-11.9-1.3s-6.6-2-9.5-3.3V99h1.3c3,2.5,6.2,4.4,9.8,5.8
		c3.6,1.3,7,2,10.4,2c0.8,0,2-0.1,3.4-0.3c1.4-0.2,2.5-0.5,3.4-0.9c1-0.5,1.9-1.1,2.6-1.9c0.7-0.8,1.1-1.9,1.1-3.2
		c0-1.5-0.6-2.7-1.7-3.6s-2.6-1.6-4.2-2c-2-0.5-4.2-1-6.4-1.5c-2.3-0.5-4.4-1.1-6.4-1.7c-4.6-1.6-7.9-3.8-9.8-6.5
		c-2-2.7-3-6.1-3-10.2c0-5.5,2.3-10,7-13.4c4.7-3.4,10.5-5.1,17.5-5.1c3.5,0,7,0.4,10.5,1.1c3.5,0.7,6.6,1.7,9.3,2.9v13.5h-1.3
		c-2.2-1.9-4.9-3.5-8-4.8c-3.2-1.3-6.4-1.9-9.7-1.9c-1.3,0-2.5,0.1-3.5,0.3c-1,0.2-2.1,0.5-3.3,1.1c-0.9,0.4-1.7,1.1-2.4,1.9
		c-0.7,0.8-1,1.8-1,2.8c0,1.5,0.5,2.7,1.6,3.6c1.1,0.9,3.1,1.7,6.2,2.4c2,0.5,3.9,0.9,5.7,1.3c1.8,0.4,3.8,1,5.9,1.7
		c4.1,1.5,7.1,3.5,9.1,6c2,2.5,3,5.8,3,9.9C304.4,103.9,302.1,108.7,297.5,112.2z M1791.4,172.6H366.7V3h1424.7V172.6z"/>
	<path fill="#00254A" d="M220.2,70.5c-2-1.1-4.1-1.7-6.3-1.8c-2.2-0.1-4.8-0.2-7.9-0.2h-0.3v37h0.3c3.3,0,6.1-0.1,8.4-0.2
		c2.3-0.1,4.5-0.8,6.5-2.1c2.4-1.5,4.3-3.7,5.6-6.3c1.3-2.7,1.9-6,1.9-9.9c0-3.9-0.7-7.2-2-10C225,74.2,223,72,220.2,70.5z"/>
</g>
<g>
	<path fill="#00254A" d="M452,117.6c-3.9,0-7.4-0.6-10.7-1.9s-6-3.2-8.4-5.8c-2.4-2.6-4.2-5.8-5.5-9.6c-1.3-3.8-1.9-8.2-1.9-13.2
		c0-4.9,0.6-9.3,1.9-12.9c1.3-3.7,3.1-6.9,5.5-9.6c2.4-2.6,5.1-4.7,8.4-6.1s6.8-2.1,10.8-2.1c2,0,3.8,0.1,5.6,0.4
		c1.7,0.3,3.3,0.7,4.8,1.1c1.3,0.4,2.6,0.9,3.9,1.5s2.7,1.2,3.9,2v9.5h-0.6c-0.7-0.6-1.6-1.4-2.7-2.3c-1.1-0.9-2.4-1.8-4-2.7
		c-1.5-0.8-3.1-1.5-4.9-2c-1.8-0.5-3.8-0.8-6.2-0.8c-2.5,0-4.9,0.5-7.1,1.5c-2.2,1-4.2,2.6-5.9,4.6c-1.7,2-3,4.5-3.9,7.6
		c-0.9,3-1.4,6.5-1.4,10.3c0,4,0.5,7.5,1.5,10.5c1,2.9,2.3,5.4,4,7.4c1.6,2,3.6,3.4,5.8,4.4c2.2,1,4.6,1.5,7.1,1.5
		c2.3,0,4.4-0.3,6.3-0.8s3.7-1.3,5.2-2.1c1.5-0.8,2.7-1.7,3.8-2.5c1.1-0.9,1.9-1.6,2.5-2.2h0.6v9.4c-1.3,0.6-2.5,1.2-3.7,1.7
		c-1.2,0.6-2.5,1.1-4.2,1.6c-1.7,0.6-3.3,1-4.8,1.3C456.3,117.4,454.4,117.6,452,117.6z"/>
	<path fill="#00254A" d="M504.5,117.6c-7.1,0-12.5-2-16.4-6c-3.9-4-5.9-9.6-5.9-17c0-7.2,1.9-13,5.7-17.2c3.8-4.3,8.7-6.4,14.8-6.4
		c2.8,0,5.2,0.4,7.3,1.2c2.1,0.8,4,2,5.6,3.7c1.6,1.7,2.8,3.8,3.6,6.2c0.8,2.4,1.3,5.4,1.3,9v4h-30.7c0,5.2,1.3,9.1,3.9,11.8
		c2.6,2.7,6.2,4.1,10.8,4.1c1.6,0,3.2-0.2,4.8-0.6c1.6-0.4,3-0.8,4.3-1.4c1.3-0.6,2.5-1.2,3.4-1.8c0.9-0.6,1.7-1.1,2.3-1.6h0.4v8.1
		c-0.9,0.3-2,0.8-3.3,1.3c-1.3,0.5-2.5,0.9-3.5,1.2c-1.5,0.4-2.8,0.7-3.9,0.9C507.8,117.4,506.3,117.6,504.5,117.6z M513.2,89.4
		c-0.1-2-0.3-3.7-0.7-5.2c-0.4-1.5-1-2.7-1.8-3.7c-0.9-1.1-2-2-3.4-2.5c-1.4-0.6-3-0.9-5.1-0.9c-2,0-3.7,0.3-5.1,0.9
		s-2.7,1.5-3.8,2.6c-1.1,1.2-2,2.5-2.5,3.9c-0.6,1.4-1,3.1-1.1,4.9H513.2z"/>
	<path fill="#00254A" d="M571,116.5h-7.5V91.3c0-2-0.1-3.9-0.3-5.7c-0.2-1.8-0.6-3.2-1.1-4.2c-0.6-1.1-1.5-1.9-2.5-2.5
		c-1.1-0.5-2.6-0.8-4.4-0.8c-1.9,0-3.8,0.5-5.7,1.5c-2,1-3.9,2.3-5.8,3.9v33.1h-7.5V72.2h7.5v4.9c2.2-2,4.4-3.5,6.6-4.6
		c2.2-1.1,4.5-1.6,6.9-1.6c4.4,0,7.8,1.4,10.2,4.3c2.5,2.9,3.7,7,3.7,12.5V116.5z"/>
	<path fill="#00254A" d="M603,117.4c-4.1,0-7.2-1.2-9.5-3.5s-3.4-6-3.4-11V78.4h-5v-6.2h5V59.5h7.5v12.7h13.7v6.2h-13.7v21.1
		c0,2.2,0,4,0.1,5.2c0.1,1.2,0.4,2.4,0.9,3.4c0.4,0.9,1.2,1.6,2.2,2.1c1,0.5,2.4,0.7,4.1,0.7c1.2,0,2.4-0.2,3.5-0.5
		c1.1-0.4,2-0.7,2.5-0.9h0.4v6.7c-1.4,0.4-2.8,0.7-4.3,0.9C605.5,117.3,604.2,117.4,603,117.4z"/>
	<path fill="#00254A" d="M648.4,80.2H648c-0.6-0.2-1.1-0.3-1.8-0.3c-0.6,0-1.4-0.1-2.2-0.1c-2,0-4,0.4-6,1.3c-2,0.9-3.9,2.2-5.6,3.9
		v31.5h-7.5V72.2h7.5v6.6c2.7-2.4,5.1-4.1,7.1-5.1s4-1.5,5.9-1.5c0.8,0,1.3,0,1.7,0.1c0.4,0,0.8,0.1,1.3,0.2V80.2z"/>
	<path fill="#00254A" d="M687.1,111.8c-0.6,0.5-1.4,1.1-2.4,1.9c-1,0.8-2,1.4-3,1.9c-1.3,0.7-2.6,1.2-3.8,1.6
		c-1.2,0.4-3,0.6-5.2,0.6c-1.8,0-3.6-0.3-5.2-1c-1.6-0.7-3.1-1.7-4.3-2.9c-1.2-1.2-2.1-2.7-2.9-4.5c-0.7-1.8-1.1-3.7-1.1-5.7
		c0-3.1,0.6-5.7,1.9-7.8s3.3-3.9,6.2-5.1c2.5-1.1,5.4-1.9,8.8-2.4c3.4-0.4,7-0.8,11-1v-1.4c0-1.7-0.3-3.2-0.8-4.2
		c-0.5-1.1-1.3-1.9-2.2-2.5c-1-0.6-2.1-1-3.5-1.2c-1.4-0.2-2.8-0.3-4.2-0.3c-1.7,0-3.7,0.3-6.1,0.8c-2.3,0.5-4.7,1.3-7,2.2h-0.4
		v-7.6c1.4-0.4,3.3-0.8,5.9-1.3c2.6-0.5,5.1-0.7,7.6-0.7c3,0,5.6,0.2,7.7,0.7c2.1,0.5,4,1.3,5.6,2.6c1.6,1.2,2.8,2.8,3.6,4.7
		c0.8,1.9,1.2,4.3,1.2,7.1v30.3h-7.4V111.8z M687.1,105.6V93.3c-1.8,0.2-4,0.4-6.7,0.7c-2.7,0.3-4.9,0.7-6.6,1.2
		c-2,0.6-3.6,1.5-4.9,2.8c-1.3,1.3-1.9,3-1.9,5.3c0,2.5,0.7,4.5,2.1,5.8c1.4,1.3,3.5,1.9,6.3,1.9c2.4,0,4.5-0.5,6.4-1.5
		C683.6,108.3,685.4,107.1,687.1,105.6z"/>
	<path fill="#00254A" d="M720.7,116.5h-7.5V54.8h7.5V116.5z"/>
	<path fill="#00254A" d="M747.9,64.8h-8.5V57h8.5V64.8z M747.4,116.5h-7.5V72.2h7.5V116.5z"/>
	<path fill="#00254A" d="M795.6,116.5H763V111l23.2-32.7H764v-6.1h31.2v5.3l-23.3,32.8h23.7V116.5z"/>
	<path fill="#00254A" d="M829.9,117.6c-7.1,0-12.5-2-16.4-6c-3.9-4-5.9-9.6-5.9-17c0-7.2,1.9-13,5.7-17.2c3.8-4.3,8.7-6.4,14.8-6.4
		c2.8,0,5.2,0.4,7.3,1.2c2.1,0.8,4,2,5.6,3.7c1.6,1.7,2.8,3.8,3.6,6.2c0.8,2.4,1.3,5.4,1.3,9v4h-30.7c0,5.2,1.3,9.1,3.9,11.8
		c2.6,2.7,6.2,4.1,10.8,4.1c1.6,0,3.2-0.2,4.8-0.6c1.6-0.4,3-0.8,4.3-1.4c1.3-0.6,2.5-1.2,3.4-1.8c0.9-0.6,1.7-1.1,2.3-1.6h0.4v8.1
		c-0.9,0.3-2,0.8-3.3,1.3c-1.3,0.5-2.5,0.9-3.5,1.2c-1.5,0.4-2.8,0.7-3.9,0.9C833.2,117.4,831.7,117.6,829.9,117.6z M838.7,89.4
		c-0.1-2-0.3-3.7-0.7-5.2c-0.4-1.5-1-2.7-1.8-3.7c-0.9-1.1-2-2-3.4-2.5c-1.4-0.6-3-0.9-5.1-0.9c-2,0-3.7,0.3-5.1,0.9
		s-2.7,1.5-3.8,2.6c-1.1,1.2-2,2.5-2.5,3.9c-0.6,1.4-1,3.1-1.1,4.9H838.7z"/>
	<path fill="#00254A" d="M895.7,116.5h-7.5V112c-1.2,1-2.2,1.8-3,2.4c-0.8,0.6-1.8,1.2-3,1.7c-1.1,0.5-2.2,0.9-3.3,1.2
		c-1.1,0.3-2.5,0.4-4,0.4c-2.4,0-4.6-0.5-6.7-1.5s-3.8-2.5-5.2-4.4c-1.5-2-2.6-4.4-3.4-7.2s-1.2-6.2-1.2-9.9c0-3.9,0.5-7.3,1.5-10.1
		c1-2.8,2.4-5.3,4.2-7.4c1.6-1.9,3.6-3.4,5.9-4.5c2.3-1.1,4.7-1.6,7.2-1.6c2.2,0,4.2,0.2,5.8,0.7c1.6,0.5,3.4,1.2,5.2,2.3V54.8h7.5
		V116.5z M888.3,105.7V80.2c-1.9-0.9-3.5-1.5-5-1.9c-1.5-0.3-3.1-0.5-4.8-0.5c-3.8,0-6.8,1.4-9,4.3c-2.2,2.9-3.3,7-3.3,12.4
		c0,5.2,0.8,9.2,2.5,12c1.7,2.8,4.3,4.1,8,4.1c2,0,3.9-0.4,5.9-1.3C884.7,108.4,886.5,107.2,888.3,105.7z"/>
	<path fill="#00254A" d="M986.4,116.5h-41.3v-7.3l31.6-44.8h-30.2v-7h39v7.1l-32,45h32.8V116.5z"/>
	<path fill="#00254A" d="M1038.2,94.4c0,7.5-1.8,13.2-5.4,17.3c-3.6,4.1-8.4,6.1-14.4,6.1c-6.2,0-11-2.1-14.5-6.3s-5.3-9.9-5.3-17.1
		c0-7.4,1.8-13.2,5.5-17.3c3.6-4.1,8.4-6.1,14.4-6.1c6,0,10.8,2,14.4,6.1C1036.4,81.2,1038.2,87,1038.2,94.4z M1030.5,94.4
		c0-5.7-1-10-3.1-12.8c-2.1-2.8-5.1-4.2-8.9-4.2c-3.9,0-6.9,1.4-9,4.2c-2.1,2.8-3.2,7.1-3.2,12.8c0,5.6,1.1,9.8,3.2,12.6
		c2.1,2.9,5.1,4.3,9,4.3c3.8,0,6.8-1.4,8.9-4.2C1029.4,104.3,1030.5,100,1030.5,94.4z"/>
	<path fill="#00254A" d="M1088.8,116.5h-7.5V91.3c0-2-0.1-3.9-0.3-5.7c-0.2-1.8-0.6-3.2-1.1-4.2c-0.6-1.1-1.5-1.9-2.5-2.5
		c-1.1-0.5-2.6-0.8-4.4-0.8c-1.9,0-3.8,0.5-5.7,1.5c-2,1-3.9,2.3-5.8,3.9v33.1h-7.5V72.2h7.5v4.9c2.2-2,4.4-3.5,6.6-4.6
		c2.2-1.1,4.5-1.6,6.9-1.6c4.4,0,7.8,1.4,10.2,4.3c2.5,2.9,3.7,7,3.7,12.5V116.5z"/>
	<path fill="#00254A" d="M1126.6,117.6c-7.1,0-12.5-2-16.4-6c-3.9-4-5.9-9.6-5.9-17c0-7.2,1.9-13,5.7-17.2c3.8-4.3,8.7-6.4,14.8-6.4
		c2.8,0,5.2,0.4,7.3,1.2c2.1,0.8,4,2,5.6,3.7c1.6,1.7,2.8,3.8,3.6,6.2c0.8,2.4,1.3,5.4,1.3,9v4h-30.7c0,5.2,1.3,9.1,3.9,11.8
		c2.6,2.7,6.2,4.1,10.8,4.1c1.6,0,3.2-0.2,4.8-0.6c1.6-0.4,3-0.8,4.3-1.4c1.3-0.6,2.5-1.2,3.4-1.8c0.9-0.6,1.7-1.1,2.3-1.6h0.4v8.1
		c-0.9,0.3-2,0.8-3.3,1.3c-1.3,0.5-2.5,0.9-3.5,1.2c-1.5,0.4-2.8,0.7-3.9,0.9C1129.9,117.4,1128.4,117.6,1126.6,117.6z M1135.4,89.4
		c-0.1-2-0.3-3.7-0.7-5.2c-0.4-1.5-1-2.7-1.8-3.7c-0.9-1.1-2-2-3.4-2.5c-1.4-0.6-3-0.9-5.1-0.9c-2,0-3.7,0.3-5.1,0.9
		s-2.7,1.5-3.8,2.6c-1.1,1.2-2,2.5-2.5,3.9c-0.6,1.4-1,3.1-1.1,4.9H1135.4z"/>
	<path fill="#00254A" d="M1239,87c0,5.4-1.1,10.3-3.3,14.6c-2.2,4.3-5.1,7.7-8.8,10.2c-3,1.9-6,3.1-9.1,3.8c-3.1,0.6-7,1-11.8,1
		h-13.6V57.4h13.5c5.6,0,9.9,0.4,13.1,1.2c3.2,0.8,5.9,2,8.1,3.4c3.8,2.5,6.8,5.9,8.8,10S1239,81.3,1239,87z M1230.8,86.9
		c0-4.5-0.8-8.4-2.3-11.6c-1.5-3.2-3.7-5.7-6.7-7.5c-2.1-1.3-4.3-2.2-6.7-2.7c-2.4-0.6-5.3-0.8-8.9-0.8h-6v45.6h6
		c3.5,0,6.5-0.3,9.2-0.8c2.6-0.6,5-1.6,7.2-3.1c2.7-1.9,4.8-4.3,6.2-7.4C1230.1,95.4,1230.8,91.5,1230.8,86.9z"/>
	<path fill="#00254A" d="M1279.8,111.8c-0.6,0.5-1.4,1.1-2.4,1.9c-1,0.8-2,1.4-3,1.9c-1.3,0.7-2.6,1.2-3.8,1.6
		c-1.2,0.4-3,0.6-5.2,0.6c-1.8,0-3.6-0.3-5.2-1c-1.6-0.7-3.1-1.7-4.3-2.9c-1.2-1.2-2.1-2.7-2.9-4.5c-0.7-1.8-1.1-3.7-1.1-5.7
		c0-3.1,0.6-5.7,1.9-7.8s3.3-3.9,6.2-5.1c2.5-1.1,5.4-1.9,8.8-2.4c3.4-0.4,7-0.8,11-1v-1.4c0-1.7-0.3-3.2-0.8-4.2
		c-0.5-1.1-1.3-1.9-2.2-2.5c-1-0.6-2.1-1-3.5-1.2c-1.4-0.2-2.8-0.3-4.2-0.3c-1.7,0-3.7,0.3-6.1,0.8c-2.3,0.5-4.7,1.3-7,2.2h-0.4
		v-7.6c1.4-0.4,3.3-0.8,5.9-1.3c2.6-0.5,5.1-0.7,7.6-0.7c3,0,5.6,0.2,7.7,0.7c2.1,0.5,4,1.3,5.6,2.6c1.6,1.2,2.8,2.8,3.6,4.7
		c0.8,1.9,1.2,4.3,1.2,7.1v30.3h-7.4V111.8z M1279.8,105.6V93.3c-1.8,0.2-4,0.4-6.7,0.7c-2.7,0.3-4.9,0.7-6.6,1.2
		c-2,0.6-3.6,1.5-4.9,2.8c-1.3,1.3-1.9,3-1.9,5.3c0,2.5,0.7,4.5,2.1,5.8c1.4,1.3,3.5,1.9,6.3,1.9c2.4,0,4.5-0.5,6.4-1.5
		C1276.4,108.3,1278.1,107.1,1279.8,105.6z"/>
	<path fill="#00254A" d="M1319.2,117.4c-4.1,0-7.2-1.2-9.5-3.5s-3.4-6-3.4-11V78.4h-5v-6.2h5V59.5h7.5v12.7h13.7v6.2h-13.7v21.1
		c0,2.2,0,4,0.1,5.2c0.1,1.2,0.4,2.4,0.9,3.4c0.4,0.9,1.2,1.6,2.2,2.1c1,0.5,2.4,0.7,4.1,0.7c1.2,0,2.4-0.2,3.5-0.5
		c1.1-0.4,2-0.7,2.5-0.9h0.4v6.7c-1.4,0.4-2.8,0.7-4.3,0.9C1321.8,117.3,1320.5,117.4,1319.2,117.4z"/>
	<path fill="#00254A" d="M1365.9,111.8c-0.6,0.5-1.4,1.1-2.4,1.9c-1,0.8-2,1.4-3,1.9c-1.3,0.7-2.6,1.2-3.8,1.6
		c-1.2,0.4-3,0.6-5.2,0.6c-1.8,0-3.6-0.3-5.2-1c-1.6-0.7-3.1-1.7-4.3-2.9c-1.2-1.2-2.1-2.7-2.9-4.5c-0.7-1.8-1.1-3.7-1.1-5.7
		c0-3.1,0.6-5.7,1.9-7.8s3.3-3.9,6.2-5.1c2.5-1.1,5.4-1.9,8.8-2.4c3.4-0.4,7-0.8,11-1v-1.4c0-1.7-0.3-3.2-0.8-4.2
		c-0.5-1.1-1.3-1.9-2.2-2.5c-1-0.6-2.1-1-3.5-1.2c-1.4-0.2-2.8-0.3-4.2-0.3c-1.7,0-3.7,0.3-6.1,0.8c-2.3,0.5-4.7,1.3-7,2.2h-0.4
		v-7.6c1.4-0.4,3.3-0.8,5.9-1.3c2.6-0.5,5.1-0.7,7.6-0.7c3,0,5.6,0.2,7.7,0.7c2.1,0.5,4,1.3,5.6,2.6c1.6,1.2,2.8,2.8,3.6,4.7
		c0.8,1.9,1.2,4.3,1.2,7.1v30.3h-7.4V111.8z M1365.9,105.6V93.3c-1.8,0.2-4,0.4-6.7,0.7c-2.7,0.3-4.9,0.7-6.6,1.2
		c-2,0.6-3.6,1.5-4.9,2.8c-1.3,1.3-1.9,3-1.9,5.3c0,2.5,0.7,4.5,2.1,5.8c1.4,1.3,3.5,1.9,6.3,1.9c2.4,0,4.5-0.5,6.4-1.5
		C1362.4,108.3,1364.2,107.1,1365.9,105.6z"/>
	<path fill="#00254A" d="M1442.5,117.6c-4.3,0-7.9-0.4-10.9-1.3c-3-0.9-5.8-2-8.5-3.3v-9.8h0.6c2.6,2.4,5.5,4.3,8.8,5.7
		c3.3,1.3,6.4,2,9.5,2c4.3,0,7.6-0.9,9.8-2.7c2.2-1.8,3.3-4.2,3.3-7.2c0-2.4-0.6-4.3-1.7-5.8c-1.2-1.5-3-2.6-5.6-3.3
		c-1.8-0.5-3.5-1-5-1.3c-1.5-0.3-3.4-0.8-5.7-1.4c-2-0.5-3.9-1.2-5.5-2c-1.6-0.8-3-1.9-4.3-3.2c-1.2-1.3-2.2-2.8-2.8-4.6
		c-0.7-1.8-1-3.8-1-6.1c0-4.8,1.9-8.8,5.6-12s8.5-4.9,14.3-4.9c3.3,0,6.4,0.3,9.4,1c2.9,0.7,5.7,1.6,8.2,2.8v9.4h-0.6
		c-1.9-1.7-4.3-3.2-7.2-4.5c-2.9-1.3-6-1.9-9.2-1.9c-3.7,0-6.6,0.9-8.8,2.6c-2.2,1.7-3.4,3.9-3.4,6.7c0,2.5,0.7,4.5,2,6
		c1.3,1.5,3.2,2.6,5.8,3.3c1.7,0.4,3.7,1,6.1,1.5c2.4,0.6,4.4,1.1,6,1.6c4.1,1.2,7,3.1,8.9,5.6s2.8,5.6,2.8,9.3
		c0,2.3-0.5,4.6-1.4,6.8c-0.9,2.2-2.3,4.2-3.9,5.7c-1.9,1.7-4.1,3-6.4,4C1449.1,117.1,1446.1,117.6,1442.5,117.6z"/>
	<path fill="#00254A" d="M1498.1,117.6c-7.1,0-12.5-2-16.4-6c-3.9-4-5.9-9.6-5.9-17c0-7.2,1.9-13,5.7-17.2c3.8-4.3,8.7-6.4,14.8-6.4
		c2.8,0,5.2,0.4,7.3,1.2c2.1,0.8,4,2,5.6,3.7c1.6,1.7,2.8,3.8,3.6,6.2c0.8,2.4,1.3,5.4,1.3,9v4h-30.7c0,5.2,1.3,9.1,3.9,11.8
		c2.6,2.7,6.2,4.1,10.8,4.1c1.6,0,3.2-0.2,4.8-0.6c1.6-0.4,3-0.8,4.3-1.4c1.3-0.6,2.5-1.2,3.4-1.8c0.9-0.6,1.7-1.1,2.3-1.6h0.4v8.1
		c-0.9,0.3-2,0.8-3.3,1.3c-1.3,0.5-2.5,0.9-3.5,1.2c-1.5,0.4-2.8,0.7-3.9,0.9C1501.4,117.4,1499.9,117.6,1498.1,117.6z M1506.8,89.4
		c-0.1-2-0.3-3.7-0.7-5.2c-0.4-1.5-1-2.7-1.8-3.7c-0.9-1.1-2-2-3.4-2.5c-1.4-0.6-3-0.9-5.1-0.9c-2,0-3.7,0.3-5.1,0.9
		s-2.7,1.5-3.8,2.6c-1.1,1.2-2,2.5-2.5,3.9c-0.6,1.4-1,3.1-1.1,4.9H1506.8z"/>
	<path fill="#00254A" d="M1553.2,80.2h-0.4c-0.6-0.2-1.1-0.3-1.8-0.3c-0.6,0-1.4-0.1-2.2-0.1c-2,0-4,0.4-6,1.3
		c-2,0.9-3.9,2.2-5.6,3.9v31.5h-7.5V72.2h7.5v6.6c2.7-2.4,5.1-4.1,7.1-5.1s4-1.5,5.9-1.5c0.8,0,1.3,0,1.7,0.1c0.4,0,0.8,0.1,1.3,0.2
		V80.2z"/>
	<path fill="#00254A" d="M1602,72.2l-16.7,44.3h-6.7L1562,72.2h8.1l12.1,34.2l12-34.2H1602z"/>
	<path fill="#00254A" d="M1623.9,64.8h-8.5V57h8.5V64.8z M1623.4,116.5h-7.5V72.2h7.5V116.5z"/>
	<path fill="#00254A" d="M1660,117.5c-3,0-5.8-0.5-8.4-1.4c-2.5-0.9-4.7-2.4-6.5-4.3s-3.2-4.3-4.2-7.2c-1-2.9-1.5-6.3-1.5-10.2
		c0-3.9,0.5-7.2,1.6-10.1c1-2.8,2.4-5.2,4.2-7.1c1.7-1.9,3.9-3.4,6.5-4.5s5.4-1.6,8.4-1.6c2.4,0,4.8,0.3,7,1
		c2.3,0.7,4.3,1.5,6.1,2.4V83h-0.4c-0.5-0.4-1.2-1-2-1.5c-0.8-0.6-1.8-1.2-3-1.8c-1-0.5-2.2-1-3.7-1.4c-1.4-0.4-2.8-0.6-4-0.6
		c-3.9,0-7,1.5-9.3,4.4c-2.3,2.9-3.5,7.1-3.5,12.4c0,5.2,1.1,9.3,3.4,12.2s5.4,4.4,9.4,4.4c2.4,0,4.7-0.5,6.9-1.5
		c2.2-1,4.1-2.3,5.8-3.9h0.4v8.4c-0.7,0.3-1.7,0.8-2.8,1.2c-1.1,0.5-2.1,0.9-3,1.1c-1.3,0.4-2.4,0.7-3.4,0.9
		C1662.9,117.4,1661.6,117.5,1660,117.5z"/>
	<path fill="#00254A" d="M1707.3,117.6c-7.1,0-12.5-2-16.4-6c-3.9-4-5.9-9.6-5.9-17c0-7.2,1.9-13,5.7-17.2c3.8-4.3,8.7-6.4,14.8-6.4
		c2.8,0,5.2,0.4,7.3,1.2c2.1,0.8,4,2,5.6,3.7c1.6,1.7,2.8,3.8,3.6,6.2c0.8,2.4,1.3,5.4,1.3,9v4h-30.7c0,5.2,1.3,9.1,3.9,11.8
		c2.6,2.7,6.2,4.1,10.8,4.1c1.6,0,3.2-0.2,4.8-0.6c1.6-0.4,3-0.8,4.3-1.4c1.3-0.6,2.5-1.2,3.4-1.8c0.9-0.6,1.7-1.1,2.3-1.6h0.4v8.1
		c-0.9,0.3-2,0.8-3.3,1.3c-1.3,0.5-2.5,0.9-3.5,1.2c-1.5,0.4-2.8,0.7-3.9,0.9C1710.6,117.4,1709.1,117.6,1707.3,117.6z M1716,89.4
		c-0.1-2-0.3-3.7-0.7-5.2c-0.4-1.5-1-2.7-1.8-3.7c-0.9-1.1-2-2-3.4-2.5c-1.4-0.6-3-0.9-5.1-0.9c-2,0-3.7,0.3-5.1,0.9
		s-2.7,1.5-3.8,2.6c-1.1,1.2-2,2.5-2.5,3.9c-0.6,1.4-1,3.1-1.1,4.9H1716z"/>
</g>
</svg>
